<?xml version="1.0" encoding="UTF-8"?>
<svg width="515px" height="119px" viewBox="0 0 515 119" version="1.1" xmlns="http://www.w3.org/2000/svg" xmlns:xlink="http://www.w3.org/1999/xlink">
    <!-- Generator: Sketch 43.2 (39069) - http://www.bohemiancoding.com/sketch -->
    <title id="aliceLogoTitle">Alice Home</title>
    <defs></defs>
    <g id="Page-1" fill-rule="evenodd">
        <g id="Web_logo" transform="translate(-60.000000, -381.000000)">
            <g id="logo-paths" transform="translate(60.000000, 381.000000)">
                <path d="M290.765,90.102 L290.765,18.602 C290.765,18.602 290.265,7.352 304.765,1.352 L245.959,1.352 C260.459,7.352 259.959,18.602 259.959,18.602 L259.959,90.102 C259.959,112.602 245.959,118.352 245.959,118.352 L304.765,118.352 C304.765,118.352 290.765,112.602 290.765,90.102" id="Fill-155"></path>
                <path d="M489.868,82.676 L489.868,33.175 C478.999,52.481 459.75,57.925 459.75,57.925 C459.75,57.925 478.999,63.369 489.868,82.676" id="Fill-156"></path>
                <path d="M514.184,1.175 L409.934,1.175 C424.434,7.175 423.934,18.425 423.934,18.425 L423.934,89.926 C423.934,112.426 409.934,118.176 409.934,118.176 L514.184,118.176 L514.184,76.426 C503.656,91.437 487.505,108.423 480.903,115.176 L454.684,115.176 L454.684,4.172 L480.899,4.172 C487.5,10.923 503.654,27.912 514.184,42.925 L514.184,1.175" id="Fill-157"></path>
                <path d="M203.226,115.352 L182.01,115.352 L182.066,18.602 C182.066,18.602 181.566,7.352 196.066,1.352 L137.26,1.352 C151.76,7.352 151.26,18.602 151.26,18.602 L151.26,90.102 C151.26,112.602 137.26,118.352 137.26,118.352 L236.506,118.352 L236.506,76.602 C225.979,91.613 209.829,108.599 203.226,115.352" id="Fill-158"></path>
                <path d="M33.937,76.872 L52.488,32.561 L72.871,76.872 L33.937,76.872 Z M77.984,118.3 L132.984,118.3 C127.067,118.3 124.151,111.384 124.151,111.384 L74.401,1.403 L62.234,1.403 L51.061,28.202 L24.63,91.333 C12.586,116.512 0.734,118.3 0.734,118.3 L47.317,118.3 C47.317,118.3 38.401,117.8 32.734,106.8 C27.404,96.454 32.044,81.743 32.614,80.031 L32.681,79.872 L74.25,79.872 L84.567,102.3 C84.567,102.3 88.651,111.55 84.901,114.717 C80.584,118.362 77.984,118.3 77.984,118.3 L77.984,118.3 Z" id="Fill-159"></path>
                <path d="M396.909,75.792 C396.963,78.069 396.914,80.346 396.734,82.61 C396.248,88.791 394.851,94.931 392.038,100.412 C389.514,105.331 385.719,109.591 381.015,112.516 C375.981,115.645 369.77,117.291 363.854,117.397 C358.565,117.492 353.288,115.302 349.869,111.217 C349.611,110.909 349.365,110.593 349.131,110.267 C348.839,109.861 348.563,109.439 348.293,109.013 C348.09,108.651 347.898,108.283 347.726,107.904 C343.978,99.656 342.626,90.54 341.905,81.593 C341.164,72.4 341.031,63.172 341.263,53.952 C341.549,42.6 341.135,21.059 349.631,9.25 C353.117,4.404 358.96,1.849 364.922,2.138 C365.761,2.179 366.631,2.229 367.532,2.29 C384.547,3.449 395.804,24.419 400.82,36.842 L400.887,1.139 L396.803,2.466 C393.42,3.567 389.84,3.923 386.307,3.513 C386.307,3.513 370.323,0.904 364.709,0.767 C363.743,0.743 362.774,0.755 361.804,0.774 C353.938,0.716 336.437,2.287 323.566,15.941 C306.962,33.555 306.156,54.958 306.181,59.471 L306.183,59.82 C306.129,63.695 306.614,85.628 323.566,103.612 C327.525,107.813 332.288,111.203 337.512,113.648 C343.313,116.363 349.498,117.98 355.875,118.525 C358.642,118.762 361.433,118.811 364.209,118.749 C370.318,118.614 376.717,117.553 382.22,114.723 C387.204,112.16 391.469,108.255 394.604,103.622 C394.887,103.203 395.161,102.778 395.426,102.348 C399.025,96.531 401.084,89.914 402.147,83.258 C402.422,81.537 402.626,79.81 402.772,78.08 L396.909,75.792" id="Fill-160"></path>
            </g>
        </g>
    </g>
</svg>
